<?xml version="1.0" standalone="no"?>
<!DOCTYPE svg PUBLIC "-//W3C//DTD SVG 20010904//EN"
 "http://www.w3.org/TR/2001/REC-SVG-20010904/DTD/svg10.dtd">
<svg version="1.0" xmlns="http://www.w3.org/2000/svg"
 width="512.000000pt" height="512.000000pt" viewBox="0 0 512.000000 512.000000"
 preserveAspectRatio="xMidYMid meet">

<g transform="translate(0.000000,512.000000) scale(0.100000,-0.100000)"
fill="#000000" stroke="none">
<path d="M2190 4909 c-265 -28 -466 -271 -446 -540 21 -295 289 -513 578 -471
255 37 437 244 438 498 0 153 -49 271 -154 372 -116 111 -252 157 -416 141z"/>
<path d="M4541 4883 c-22 -22 -33 -53 -55 -148 -82 -352 -236 -684 -438 -947
-91 -117 -254 -286 -378 -390 -113 -95 -331 -242 -485 -327 l-110 -61 -3 90
-3 90 486 602 c268 332 498 625 512 652 30 59 34 150 8 214 -21 52 -99 124
-153 140 -62 19 -131 15 -188 -12 -44 -20 -78 -56 -271 -287 -122 -145 -306
-365 -410 -488 l-188 -224 -695 -238 c-382 -131 -700 -239 -706 -239 -6 0 -93
127 -194 283 -101 155 -199 299 -219 320 -67 71 -163 95 -263 65 -52 -15 -121
-78 -148 -133 -26 -53 -29 -145 -6 -199 21 -51 520 -817 550 -845 52 -49 93
-43 496 67 201 55 366 100 367 99 0 -1 18 -135 38 -297 20 -162 39 -297 41
-299 3 -4 152 60 349 149 74 34 158 70 450 199 342 150 592 296 821 478 401
320 700 741 857 1204 53 157 100 347 101 407 1 47 -3 57 -27 78 -40 35 -99 33
-136 -3z"/>
<path d="M3785 2861 c-24 -7 -813 -349 -1310 -568 -55 -24 -151 -65 -212 -91
l-112 -47 -20 -60 c-10 -33 -123 -361 -251 -730 -257 -741 -260 -753 -221
-856 43 -115 141 -188 260 -197 36 -2 85 1 108 7 57 16 132 68 166 117 19 28
103 255 248 670 121 346 223 631 227 635 4 3 111 50 237 104 127 54 316 136
420 181 l190 81 7 -26 c4 -14 21 -183 38 -375 36 -401 39 -416 126 -495 63
-58 124 -81 208 -81 143 1 251 86 292 228 15 52 14 79 -35 626 -28 314 -53
597 -56 628 -9 105 -52 177 -131 220 -54 29 -132 42 -179 29z"/>
<path d="M3060 1696 l-85 -33 -3 -693 c-2 -763 -6 -722 59 -755 38 -20 79 -12
113 22 l26 26 0 733 c0 581 -3 734 -12 733 -7 0 -51 -15 -98 -33z"/>
</g>
</svg>
