<?xml version="1.0" standalone="no"?>
<!DOCTYPE svg PUBLIC "-//W3C//DTD SVG 20010904//EN"
 "http://www.w3.org/TR/2001/REC-SVG-20010904/DTD/svg10.dtd">
<svg version="1.0" xmlns="http://www.w3.org/2000/svg"
 width="512.000000pt" height="512.000000pt" viewBox="0 0 512.000000 512.000000"
 preserveAspectRatio="xMidYMid meet">

<g transform="translate(0.000000,512.000000) scale(0.100000,-0.100000)"
fill="#000000" stroke="none">
<path d="M4040 4903 c-14 -9 -204 -194 -423 -412 l-397 -396 122 -122 c68 -68
127 -123 133 -123 6 0 192 182 415 405 l405 405 0 50 c0 47 -3 52 -65 115 -94
96 -137 114 -190 78z"/>
<path d="M1800 4603 c-47 -8 -125 -36 -170 -61 -57 -32 -579 -549 -626 -620
-58 -86 -77 -152 -77 -267 0 -107 18 -176 71 -260 57 -90 176 -177 281 -205
63 -17 191 -14 258 5 90 26 139 59 258 176 l111 109 119 -120 c65 -66 117
-122 115 -124 -3 -3 -310 -310 -682 -683 -738 -738 -716 -714 -738 -851 -24
-145 50 -282 185 -344 69 -32 185 -31 270 2 55 21 87 49 385 343 900 888 1809
1804 1815 1830 4 15 4 39 0 54 -7 30 -124 154 -287 304 -159 147 -116 165
-488 -206 l-305 -305 -119 119 -119 120 105 114 c116 126 148 174 173 259 17
59 21 168 10 234 -12 69 -71 178 -128 235 -106 108 -275 166 -417 142z"/>
<path d="M3122 2967 l-172 -172 468 -468 c426 -426 470 -467 500 -467 53 0 84
23 201 149 117 127 126 144 97 199 -8 15 -219 231 -468 480 l-453 452 -173
-173z"/>
<path d="M2609 2454 l-77 -76 124 -255 c99 -203 124 -264 124 -297 0 -40 -9
-54 -152 -228 -84 -102 -156 -183 -160 -180 -14 14 -201 358 -214 396 -13 35
-13 38 4 33 143 -47 223 -58 264 -36 27 15 51 74 43 110 -10 43 -53 73 -127
88 -35 7 -95 27 -132 45 l-67 32 -420 -415 -421 -415 75 -16 c111 -24 201 -72
277 -149 52 -52 111 -141 287 -427 123 -198 235 -372 250 -387 71 -67 198 -88
284 -47 62 29 209 168 241 226 32 60 51 150 43 201 -13 73 -29 109 -135 303
-59 107 -114 209 -123 226 l-16 32 176 213 c205 249 228 290 228 399 0 74 -2
79 -95 275 -52 110 -120 250 -150 313 l-55 113 -76 -77z"/>
</g>
</svg>
