<?xml version="1.0" standalone="no"?>
<!DOCTYPE svg PUBLIC "-//W3C//DTD SVG 20010904//EN"
 "http://www.w3.org/TR/2001/REC-SVG-20010904/DTD/svg10.dtd">
<svg version="1.0" xmlns="http://www.w3.org/2000/svg"
 width="512.000000pt" height="512.000000pt" viewBox="0 0 512.000000 512.000000"
 preserveAspectRatio="xMidYMid meet">

<g transform="translate(0.000000,512.000000) scale(0.100000,-0.100000)"
fill="#000000" stroke="none">
<path d="M2212 3865 c-81 -18 -224 -87 -251 -121 -50 -63 -1 -164 79 -164 10
0 58 19 106 42 71 34 102 43 156 46 65 4 73 2 185 -52 137 -65 201 -80 283
-67 174 28 262 131 181 212 -36 35 -79 38 -142 9 -72 -32 -116 -27 -229 30
-154 77 -241 92 -368 65z"/>
<path d="M1979 3451 c-34 -35 -37 -64 -13 -173 58 -271 80 -658 50 -884 -24
-180 -58 -303 -122 -433 -60 -123 -62 -139 -20 -188 l24 -28 806 -3 c863 -3
849 -3 875 46 30 58 19 279 -23 445 -84 331 -320 666 -637 904 -280 211 -609
343 -851 343 -52 0 -63 -3 -89 -29z"/>
<path d="M985 1631 c-59 -25 -74 -83 -56 -229 20 -166 27 -184 80 -215 25 -15
71 -45 101 -67 63 -44 150 -76 248 -90 121 -17 289 21 380 86 111 79 137 94
190 105 58 12 134 6 180 -13 15 -7 57 -33 93 -60 118 -85 226 -121 363 -120
138 0 235 34 356 122 88 63 121 75 210 74 86 0 140 -20 208 -77 152 -128 401
-156 604 -68 24 10 69 38 100 61 52 39 61 51 87 119 41 107 63 197 65 263 1
50 -2 61 -27 85 l-27 28 -1568 2 c-862 1 -1576 -2 -1587 -6z"/>
<path d="M835 1023 c-11 -3 -42 -23 -70 -45 -63 -50 -169 -101 -270 -129 -82
-23 -226 -30 -373 -19 -62 5 -64 4 -93 -28 -62 -69 -23 -153 81 -172 87 -17
275 -14 360 5 115 27 230 71 311 122 l74 45 35 -21 c138 -86 306 -145 450
-159 192 -19 420 35 581 139 33 22 64 39 69 39 5 0 36 -17 67 -37 78 -50 176
-90 292 -119 229 -59 509 -12 714 119 31 20 62 37 67 37 5 0 36 -17 69 -39
161 -103 388 -158 580 -140 144 15 315 75 451 160 l35 22 59 -38 c213 -136
519 -186 709 -115 41 15 61 30 72 50 21 40 19 83 -6 114 -31 40 -72 46 -154
23 -167 -47 -442 20 -599 147 -71 57 -98 55 -189 -13 -71 -53 -139 -86 -244
-117 -114 -35 -298 -39 -408 -10 -92 24 -217 83 -285 134 -76 58 -109 57 -192
-4 -75 -56 -159 -96 -265 -126 -117 -34 -305 -31 -426 6 -106 32 -162 59 -245
120 -83 61 -116 62 -192 4 -68 -51 -193 -110 -285 -134 -110 -29 -294 -25
-408 10 -105 31 -173 64 -244 117 -44 33 -99 63 -106 58 -1 -1 -11 -4 -22 -6z"/>
<path d="M830 613 c-8 -3 -41 -26 -75 -51 -150 -110 -339 -163 -528 -147 -159
14 -166 13 -198 -23 -39 -43 -39 -91 -2 -132 36 -39 97 -51 258 -51 181 0 341
45 505 144 l65 39 45 -27 c90 -53 207 -104 290 -127 114 -31 347 -33 455 -4
94 25 207 74 278 119 31 20 62 37 67 37 5 0 36 -17 67 -37 78 -50 176 -90 290
-119 230 -58 512 -11 716 119 31 20 61 37 66 37 5 0 42 -20 81 -44 136 -84
318 -136 476 -137 185 0 351 47 516 147 59 36 61 37 87 20 74 -48 236 -119
326 -141 203 -52 449 -24 490 56 31 59 11 119 -49 144 -28 12 -42 11 -107 -6
-90 -25 -204 -21 -321 10 -107 28 -170 57 -253 116 -107 77 -122 78 -218 6
-71 -53 -139 -86 -244 -117 -114 -35 -298 -39 -408 -10 -92 24 -217 83 -285
134 -80 61 -108 60 -200 -9 -115 -86 -308 -149 -460 -149 -152 0 -345 63 -460
149 -92 69 -120 70 -200 9 -68 -51 -193 -110 -285 -134 -97 -25 -274 -25 -375
0 -96 24 -210 76 -277 126 -70 53 -100 65 -133 53z"/>
</g>
</svg>
