<?xml version="1.0" standalone="no"?>
<!DOCTYPE svg PUBLIC "-//W3C//DTD SVG 20010904//EN"
 "http://www.w3.org/TR/2001/REC-SVG-20010904/DTD/svg10.dtd">
<svg version="1.0" xmlns="http://www.w3.org/2000/svg"
 width="512.000000pt" height="512.000000pt" viewBox="0 0 512.000000 512.000000"
 preserveAspectRatio="xMidYMid meet">

<g transform="translate(0.000000,512.000000) scale(0.100000,-0.100000)"
fill="#000000" stroke="none">
<path d="M1180 4594 c-87 -23 -141 -54 -201 -113 -190 -190 -159 -503 64 -652
260 -173 608 -19 658 291 28 174 -75 369 -234 443 -99 47 -191 57 -287 31z"/>
<path d="M3104 4588 c-144 -112 -816 -658 -841 -684 -36 -37 -43 -76 -18 -111
8 -11 62 -49 121 -84 l107 -63 -225 -112 -224 -112 -150 33 c-82 19 -192 44
-244 55 -52 12 -142 33 -198 47 -139 34 -230 30 -325 -15 -80 -37 -163 -113
-201 -182 -51 -94 -56 -145 -56 -630 0 -485 5 -536 56 -630 44 -81 78 -110
542 -455 155 -115 281 -212 282 -215 0 -3 -41 -38 -90 -79 -50 -40 -90 -75
-90 -77 0 -5 92 31 128 50 92 47 285 48 392 2 105 -46 280 -103 350 -116 182
-33 356 -1 630 116 52 22 85 29 163 32 102 5 156 -4 244 -40 l52 -21 38 33
c91 78 339 328 395 398 111 140 168 300 148 414 -18 94 -110 186 -227 224 -45
15 -86 19 -183 18 -245 -1 -520 -77 -859 -235 l-104 -49 -295 222 -295 222
-206 51 -206 51 -3 211 -2 211 194 4 194 3 353 178 c195 97 359 177 365 177 5
0 76 -40 157 -90 81 -49 158 -92 171 -96 39 -9 27 -18 476 351 74 61 243 198
375 304 132 106 250 204 263 218 62 68 -19 177 -97 131 -14 -8 -245 -193 -513
-411 -268 -218 -493 -397 -499 -397 -6 0 -65 33 -130 73 -96 58 -119 76 -119
95 0 55 -61 123 -127 141 -24 7 -51 7 -81 0 -43 -9 -47 -8 -133 43 -49 29 -89
56 -89 59 0 4 170 145 379 313 208 168 381 312 385 321 17 46 4 91 -35 110
-39 21 -61 19 -95 -7z m-955 -2552 l245 -123 -110 -73 c-60 -40 -145 -99 -190
-132 -44 -32 -83 -58 -86 -58 -12 0 -360 432 -353 438 11 11 198 70 225 70 14
1 135 -54 269 -122z"/>
<path d="M424 1001 c-55 -34 -79 -78 -79 -147 0 -51 4 -66 29 -99 34 -44 135
-95 300 -150 389 -130 749 -121 1121 29 l85 34 77 -32 c295 -125 621 -155 933
-86 96 21 257 73 311 101 l37 18 86 -34 c207 -84 379 -118 596 -118 118 -1
183 4 272 21 194 36 476 139 535 194 33 31 57 101 50 144 -8 51 -49 108 -90
127 -57 27 -109 21 -230 -28 -210 -83 -454 -133 -592 -120 -151 14 -338 63
-497 130 -108 46 -141 45 -267 -5 -410 -165 -686 -164 -1099 6 -106 44 -145
44 -250 -1 -100 -42 -248 -88 -357 -111 -212 -45 -482 -5 -758 112 -95 40
-164 45 -213 15z"/>
</g>
</svg>
