<?xml version="1.0" standalone="no"?>
<!DOCTYPE svg PUBLIC "-//W3C//DTD SVG 20010904//EN"
 "http://www.w3.org/TR/2001/REC-SVG-20010904/DTD/svg10.dtd">
<svg version="1.0" xmlns="http://www.w3.org/2000/svg"
 width="512.000000pt" height="512.000000pt" viewBox="0 0 512.000000 512.000000"
 preserveAspectRatio="xMidYMid meet">

<g transform="translate(0.000000,512.000000) scale(0.100000,-0.100000)"
fill="#000000" stroke="none">
<path d="M1115 4151 c-44 -19 -70 -60 -70 -111 0 -72 5 -76 240 -212 72 -41
303 -176 515 -300 722 -423 1131 -658 1143 -658 7 0 62 22 124 49 l112 48 57
-171 c31 -94 66 -182 78 -195 11 -13 174 -100 361 -193 307 -153 344 -169 379
-165 26 4 50 16 70 36 26 27 31 39 31 80 0 38 -5 55 -24 75 -13 14 -147 102
-297 196 -151 95 -277 176 -280 182 -4 5 -13 134 -20 286 -17 321 -25 376 -66
455 -78 147 -263 233 -425 199 -29 -7 -169 -72 -332 -157 -155 -80 -286 -145
-291 -145 -5 0 -280 158 -611 351 -605 353 -643 372 -694 350z"/>
<path d="M3986 4150 c-63 -16 -153 -70 -197 -117 -86 -93 -126 -237 -99 -354
30 -128 108 -226 228 -282 61 -29 76 -32 162 -32 86 0 101 3 162 32 93 44 151
100 196 191 35 72 37 81 37 172 0 91 -2 100 -37 172 -68 136 -188 217 -336
224 -42 2 -94 -1 -116 -6z"/>
<path d="M1904 3108 c-88 -60 -138 -177 -116 -275 11 -47 50 -119 78 -145 11
-9 156 -102 324 -206 168 -105 314 -197 324 -204 18 -13 7 -29 -183 -269 -112
-140 -207 -253 -213 -251 -9 2 -1168 644 -1438 795 -63 36 -118 63 -122 61 -9
-6 -148 -259 -148 -270 0 -5 112 -71 248 -146 136 -75 735 -407 1332 -738
1276 -708 1259 -699 1375 -744 223 -86 497 -98 750 -35 111 28 155 54 183 109
39 76 20 151 -52 204 -37 28 -118 27 -221 -3 -68 -21 -102 -24 -235 -25 -183
-1 -228 9 -395 89 -84 40 -899 486 -912 499 -2 2 163 141 367 311 327 273 371
312 386 351 19 51 14 106 -14 144 -22 30 -76 67 -282 192 -85 52 -337 206
-558 341 -222 136 -410 247 -417 247 -7 0 -35 -15 -61 -32z"/>
</g>
</svg>
