<svg width="103" height="93" viewBox="0 0 103 93" fill="none" xmlns="http://www.w3.org/2000/svg">
<path d="M95.6873 54.3196C95.6873 79.8849 75.8654 73.6015 51.414 73.6015C26.9625 73.6015 7.14062 79.8849 7.14062 54.3196C7.14062 28.7543 26.9625 8.02959 51.414 8.02959C75.8654 8.02959 95.6873 28.7543 95.6873 54.3196Z" fill="#FFA6A6"/>
<path d="M75.0884 48.3517C75.277 48.0836 75.4315 47.859 75.5506 47.6836C84.2654 54.1079 90.5583 59.6251 94.8628 64.358C99.2427 69.1738 101.529 73.1405 102.247 76.3919C102.957 79.6062 102.14 82.1449 100.223 84.1919C98.2803 86.2666 95.1817 87.8611 91.2972 89.0675C83.5336 91.4786 72.8652 92.2708 62.7864 92.4541C56.2189 92.5736 49.9552 92.4352 44.9217 92.324C42.221 92.2643 39.8745 92.2124 38.0251 92.2124C17.4601 92.2124 0.626007 72.1976 0.500704 47.251C24.769 32.4657 43.2427 21.7673 57.0309 14.3653C70.8755 6.93299 79.9654 2.84131 85.4444 1.26353C86.8109 0.870033 87.9388 0.637126 88.8508 0.545352C89.7683 0.453023 90.4344 0.507114 90.8958 0.65856C91.3409 0.80465 91.5812 1.03432 91.7066 1.31766C91.841 1.62121 91.8757 2.05962 91.7519 2.66912C91.5026 3.896 90.6601 5.5861 89.2965 7.66745C87.9419 9.73492 86.1062 12.14 83.923 14.7866C78.1547 21.7792 70.0283 30.3789 62.0881 38.7815C57.9908 43.1174 53.9431 47.4008 50.2946 51.3839C44.9495 57.2191 40.4521 62.4198 37.9489 66.1712C37.3216 67.1113 36.813 67.9699 36.4462 68.732C36.0824 69.4881 35.8435 70.1791 35.7834 70.7771C35.7227 71.3819 35.8417 71.9587 36.2785 72.372C36.6983 72.7691 37.314 72.9192 38.0251 72.9192C48.7209 72.9192 58.191 66.4468 64.944 60.0581C68.3291 56.8556 71.0519 53.6547 72.9284 51.2549C73.867 50.0546 74.5947 49.0536 75.0884 48.3517Z" fill="#5654CD" stroke="#99F3FF"/>
</svg>
