<?xml version="1.0" standalone="no"?>
<!DOCTYPE svg PUBLIC "-//W3C//DTD SVG 20010904//EN"
 "http://www.w3.org/TR/2001/REC-SVG-20010904/DTD/svg10.dtd">
<svg version="1.0" xmlns="http://www.w3.org/2000/svg"
 width="512.000000pt" height="512.000000pt" viewBox="0 0 512.000000 512.000000"
 preserveAspectRatio="xMidYMid meet">

<g transform="translate(0.000000,512.000000) scale(0.100000,-0.100000)"
fill="#000000" stroke="none">
<path d="M2453 4425 c-180 -39 -335 -186 -385 -364 -65 -235 47 -484 267 -592
395 -194 834 170 716 593 -49 180 -204 324 -389 364 -81 17 -128 17 -209 -1z"/>
<path d="M286 4260 c-65 -20 -116 -95 -116 -168 0 -37 56 -143 154 -292 13
-19 119 -188 235 -375 l211 -341 418 -312 418 -312 37 -188 c48 -242 69 -392
61 -445 -21 -152 -142 -482 -290 -792 -36 -76 -38 -85 -39 -180 0 -86 3 -107
24 -150 33 -67 100 -131 169 -163 46 -22 72 -26 137 -27 71 0 88 4 145 32 36
17 79 47 96 65 18 18 161 193 319 388 157 195 290 355 295 355 5 0 138 -160
295 -355 158 -195 301 -370 319 -388 17 -18 60 -48 96 -65 57 -28 74 -32 145
-32 65 1 91 5 137 27 69 32 136 96 169 163 21 43 24 63 23 150 l0 100 -61 130
c-127 274 -243 590 -263 716 -14 90 -1 181 82 600 l11 57 419 313 418 314 278
445 c308 495 322 519 322 567 0 111 -118 198 -222 164 -44 -15 -68 -40 -441
-472 -174 -202 -322 -369 -329 -372 -7 -3 -195 -82 -416 -176 l-404 -171 -576
0 -577 0 -418 177 -418 176 -347 400 c-191 220 -358 409 -372 419 -30 21 -104
31 -144 18z"/>
</g>
</svg>
