<?xml version="1.0" standalone="no"?>
<!DOCTYPE svg PUBLIC "-//W3C//DTD SVG 20010904//EN"
 "http://www.w3.org/TR/2001/REC-SVG-20010904/DTD/svg10.dtd">
<svg version="1.0" xmlns="http://www.w3.org/2000/svg"
 width="717.000000pt" height="620.000000pt" viewBox="0 0 717.000000 620.000000"
 preserveAspectRatio="xMidYMid meet">
<metadata>
Created by potrace 1.16, written by Peter Selinger 2001-2019
</metadata>
<g transform="translate(0.000000,620.000000) scale(0.100000,-0.100000)"
fill="#000000" stroke="none">
<path d="M2295 5736 c-130 -21 -240 -53 -420 -123 -441 -169 -567 -186 -892
-117 -33 6 -33 6 -33 -33 0 -50 25 -146 46 -179 32 -47 67 -57 230 -62 238 -7
340 15 699 153 280 107 375 130 555 130 182 -1 248 -17 579 -149 130 -52 282
-108 339 -125 276 -82 529 -90 769 -26 48 13 184 62 301 109 348 141 491 172
742 163 253 -9 373 -39 685 -167 220 -91 304 -116 434 -129 96 -10 276 0 324
18 31 12 72 62 86 103 6 18 15 62 19 96 l9 64 -31 -7 c-117 -25 -196 -34 -296
-35 -160 0 -233 19 -465 117 -315 135 -533 183 -824 183 -260 0 -437 -43 -816
-198 -243 -100 -315 -116 -495 -116 -220 1 -332 30 -720 184 -317 126 -409
150 -610 156 -83 2 -166 -2 -215 -10z"/>
<path d="M692 5143 c-94 -160 -232 -442 -232 -476 0 -11 -1 -9 424 -535 170
-211 324 -394 341 -408 52 -39 113 -56 210 -58 50 0 350 1 669 2 l579 4 17
-50 c24 -69 69 -131 137 -191 32 -28 252 -178 488 -332 237 -155 495 -324 575
-377 417 -274 485 -316 552 -338 113 -38 249 -30 346 20 17 9 33 13 35 8 5 -7
183 -330 637 -1152 114 -206 260 -471 324 -588 65 -117 129 -226 144 -244 35
-41 115 -78 173 -78 99 0 212 69 250 155 21 46 24 126 7 176 -6 19 -106 205
-221 414 -115 209 -329 596 -475 860 -146 264 -288 523 -317 575 -29 52 -97
176 -152 275 -55 99 -119 216 -143 260 -66 122 -129 176 -441 378 -151 98
-420 275 -599 392 -179 117 -392 257 -473 310 -81 53 -176 109 -210 123 l-62
27 -285 0 c-157 0 -544 -1 -860 -3 l-575 -3 -390 480 c-214 264 -393 483 -396
486 -4 3 -38 -47 -77 -112z"/>
<path d="M5755 5101 c-52 -23 -102 -81 -111 -126 -23 -126 52 -232 172 -242
75 -6 135 23 179 85 25 37 30 53 30 107 0 54 -4 69 -30 107 -56 79 -155 108
-240 69z"/>
<path d="M3858 4606 c-124 -33 -211 -172 -187 -299 10 -54 32 -90 81 -133 45
-40 1230 -812 1273 -830 74 -31 179 -7 243 55 110 107 117 268 15 363 -15 14
-167 117 -338 229 -318 207 -374 244 -698 456 -103 68 -205 131 -225 142 -52
25 -109 32 -164 17z"/>
<path d="M5755 4572 c-84 -39 -123 -112 -112 -208 13 -123 164 -202 276 -144
175 89 126 348 -70 366 -40 4 -64 0 -94 -14z"/>
<path d="M5767 4046 c-198 -73 -149 -376 60 -376 199 0 276 250 110 354 -55
34 -117 42 -170 22z"/>
<path d="M5733 3530 c-207 -41 -374 -220 -403 -431 -12 -89 -1 -187 31 -259
34 -77 321 -580 331 -580 6 0 76 37 156 83 81 46 217 122 302 170 217 121 201
101 156 181 l-38 68 25 56 c34 75 46 133 47 212 1 316 -296 561 -607 500z"/>
</g>
</svg>
